# xmcd CD database file
#
# Track frame offsets:
#	150
#	21512
#	42946
#	63820
#	82699
#	104247
#	119396
#	140090
#
# Disc length: 2064 seconds
#
# Revision: 0
# Processed by: cddbd v1.5.1PL0 Copyright (c) Steve Scherf et al.
# Submitted via: CDex 1.51
#
DISCID=6c080e08
DTITLE=Elliott James - The Eagle
DYEAR=2005
DGENRE=Country
TTITLE0=Elliott James - The Eagle
TTITLE1=Elliott James - Honky Tonk Preacher Man
TTITLE2=Elliott James - If Heaven Becomes Hell
TTITLE3=Elliott James - Guitarman
TTITLE4=Elliott James - I Don't Hurt Like That No More
TTITLE5=Elliott James - Dr. Jones
TTITLE6=Elliott James - Crazyville
TTITLE7=Elliott James - You Don't Have To Die To Meet An Angel
EXTD=YEAR: 2005
EXTT0=
EXTT1=
EXTT2=
EXTT3=
EXTT4=
EXTT5=
EXTT6=
EXTT7=
PLAYORDER=
